<svg width="166" height="74" viewBox="0 0 166 74" fill="none" xmlns="http://www.w3.org/2000/svg">
<mask id="path-1-inside-1_9_48" fill="white">
<path d="M47.34 50H41.184L30.888 34.412V50H24.732V24.728H30.888L41.184 40.388V24.728H47.34V50ZM70.7383 39.632C70.7383 40.208 70.7023 40.808 70.6303 41.432H56.6983C56.7943 42.68 57.1903 43.64 57.8863 44.312C58.6063 44.96 59.4823 45.284 60.5143 45.284C62.0503 45.284 63.1183 44.636 63.7183 43.34H70.2703C69.9343 44.66 69.3223 45.848 68.4343 46.904C67.5703 47.96 66.4783 48.788 65.1583 49.388C63.8383 49.988 62.3623 50.288 60.7303 50.288C58.7623 50.288 57.0103 49.868 55.4743 49.028C53.9383 48.188 52.7383 46.988 51.8743 45.428C51.0103 43.868 50.5783 42.044 50.5783 39.956C50.5783 37.868 50.9983 36.044 51.8383 34.484C52.7023 32.924 53.9023 31.724 55.4383 30.884C56.9743 30.044 58.7383 29.624 60.7303 29.624C62.6743 29.624 64.4023 30.032 65.9143 30.848C67.4263 31.664 68.6023 32.828 69.4423 34.34C70.3063 35.852 70.7383 37.616 70.7383 39.632ZM64.4383 38.012C64.4383 36.956 64.0783 36.116 63.3583 35.492C62.6383 34.868 61.7383 34.556 60.6583 34.556C59.6263 34.556 58.7503 34.856 58.0303 35.456C57.3343 36.056 56.9023 36.908 56.7343 38.012H64.4383ZM80.1419 33.26C80.8619 32.156 81.7619 31.292 82.8419 30.668C83.9219 30.02 85.1219 29.696 86.4419 29.696V36.212H84.7499C83.2139 36.212 82.0619 36.548 81.2939 37.22C80.5259 37.868 80.1419 39.02 80.1419 40.676V50H73.9859V29.912H80.1419V33.26ZM88.1603 39.92C88.1603 37.856 88.5443 36.044 89.3123 34.484C90.1043 32.924 91.1723 31.724 92.5163 30.884C93.8603 30.044 95.3603 29.624 97.0163 29.624C98.3363 29.624 99.5363 29.9 100.616 30.452C101.72 31.004 102.584 31.748 103.208 32.684V23.36H109.364V50H103.208V47.12C102.632 48.08 101.804 48.848 100.724 49.424C99.6683 50 98.4323 50.288 97.0163 50.288C95.3603 50.288 93.8603 49.868 92.5163 49.028C91.1723 48.164 90.1043 46.952 89.3123 45.392C88.5443 43.808 88.1603 41.984 88.1603 39.92ZM103.208 39.956C103.208 38.42 102.776 37.208 101.912 36.32C101.072 35.432 100.04 34.988 98.8163 34.988C97.5923 34.988 96.5483 35.432 95.6843 36.32C94.8443 37.184 94.4243 38.384 94.4243 39.92C94.4243 41.456 94.8443 42.68 95.6843 43.592C96.5483 44.48 97.5923 44.924 98.8163 44.924C100.04 44.924 101.072 44.48 101.912 43.592C102.776 42.704 103.208 41.492 103.208 39.956ZM115.222 24.728H121.522L117.49 34.376H113.35L115.222 24.728ZM133.31 50.288C131.558 50.288 129.998 49.988 128.63 49.388C127.262 48.788 126.182 47.972 125.39 46.94C124.598 45.884 124.154 44.708 124.058 43.412H130.142C130.214 44.108 130.538 44.672 131.114 45.104C131.69 45.536 132.398 45.752 133.238 45.752C134.006 45.752 134.594 45.608 135.002 45.32C135.434 45.008 135.65 44.612 135.65 44.132C135.65 43.556 135.35 43.136 134.75 42.872C134.15 42.584 133.178 42.272 131.834 41.936C130.394 41.6 129.194 41.252 128.234 40.892C127.274 40.508 126.446 39.92 125.75 39.128C125.054 38.312 124.706 37.22 124.706 35.852C124.706 34.7 125.018 33.656 125.642 32.72C126.29 31.76 127.226 31.004 128.45 30.452C129.698 29.9 131.174 29.624 132.878 29.624C135.398 29.624 137.378 30.248 138.818 31.496C140.282 32.744 141.122 34.4 141.338 36.464H135.65C135.554 35.768 135.242 35.216 134.714 34.808C134.21 34.4 133.538 34.196 132.698 34.196C131.978 34.196 131.426 34.34 131.042 34.628C130.658 34.892 130.466 35.264 130.466 35.744C130.466 36.32 130.766 36.752 131.366 37.04C131.99 37.328 132.95 37.616 134.246 37.904C135.734 38.288 136.946 38.672 137.882 39.056C138.818 39.416 139.634 40.016 140.33 40.856C141.05 41.672 141.422 42.776 141.446 44.168C141.446 45.344 141.11 46.4 140.438 47.336C139.79 48.248 138.842 48.968 137.594 49.496C136.37 50.024 134.942 50.288 133.31 50.288Z"/>
</mask>
<path d="M47.34 50H41.184L30.888 34.412V50H24.732V24.728H30.888L41.184 40.388V24.728H47.34V50ZM70.7383 39.632C70.7383 40.208 70.7023 40.808 70.6303 41.432H56.6983C56.7943 42.68 57.1903 43.64 57.8863 44.312C58.6063 44.96 59.4823 45.284 60.5143 45.284C62.0503 45.284 63.1183 44.636 63.7183 43.34H70.2703C69.9343 44.66 69.3223 45.848 68.4343 46.904C67.5703 47.96 66.4783 48.788 65.1583 49.388C63.8383 49.988 62.3623 50.288 60.7303 50.288C58.7623 50.288 57.0103 49.868 55.4743 49.028C53.9383 48.188 52.7383 46.988 51.8743 45.428C51.0103 43.868 50.5783 42.044 50.5783 39.956C50.5783 37.868 50.9983 36.044 51.8383 34.484C52.7023 32.924 53.9023 31.724 55.4383 30.884C56.9743 30.044 58.7383 29.624 60.7303 29.624C62.6743 29.624 64.4023 30.032 65.9143 30.848C67.4263 31.664 68.6023 32.828 69.4423 34.34C70.3063 35.852 70.7383 37.616 70.7383 39.632ZM64.4383 38.012C64.4383 36.956 64.0783 36.116 63.3583 35.492C62.6383 34.868 61.7383 34.556 60.6583 34.556C59.6263 34.556 58.7503 34.856 58.0303 35.456C57.3343 36.056 56.9023 36.908 56.7343 38.012H64.4383ZM80.1419 33.26C80.8619 32.156 81.7619 31.292 82.8419 30.668C83.9219 30.02 85.1219 29.696 86.4419 29.696V36.212H84.7499C83.2139 36.212 82.0619 36.548 81.2939 37.22C80.5259 37.868 80.1419 39.02 80.1419 40.676V50H73.9859V29.912H80.1419V33.26ZM88.1603 39.92C88.1603 37.856 88.5443 36.044 89.3123 34.484C90.1043 32.924 91.1723 31.724 92.5163 30.884C93.8603 30.044 95.3603 29.624 97.0163 29.624C98.3363 29.624 99.5363 29.9 100.616 30.452C101.72 31.004 102.584 31.748 103.208 32.684V23.36H109.364V50H103.208V47.12C102.632 48.08 101.804 48.848 100.724 49.424C99.6683 50 98.4323 50.288 97.0163 50.288C95.3603 50.288 93.8603 49.868 92.5163 49.028C91.1723 48.164 90.1043 46.952 89.3123 45.392C88.5443 43.808 88.1603 41.984 88.1603 39.92ZM103.208 39.956C103.208 38.42 102.776 37.208 101.912 36.32C101.072 35.432 100.04 34.988 98.8163 34.988C97.5923 34.988 96.5483 35.432 95.6843 36.32C94.8443 37.184 94.4243 38.384 94.4243 39.92C94.4243 41.456 94.8443 42.68 95.6843 43.592C96.5483 44.48 97.5923 44.924 98.8163 44.924C100.04 44.924 101.072 44.48 101.912 43.592C102.776 42.704 103.208 41.492 103.208 39.956ZM115.222 24.728H121.522L117.49 34.376H113.35L115.222 24.728ZM133.31 50.288C131.558 50.288 129.998 49.988 128.63 49.388C127.262 48.788 126.182 47.972 125.39 46.94C124.598 45.884 124.154 44.708 124.058 43.412H130.142C130.214 44.108 130.538 44.672 131.114 45.104C131.69 45.536 132.398 45.752 133.238 45.752C134.006 45.752 134.594 45.608 135.002 45.32C135.434 45.008 135.65 44.612 135.65 44.132C135.65 43.556 135.35 43.136 134.75 42.872C134.15 42.584 133.178 42.272 131.834 41.936C130.394 41.6 129.194 41.252 128.234 40.892C127.274 40.508 126.446 39.92 125.75 39.128C125.054 38.312 124.706 37.22 124.706 35.852C124.706 34.7 125.018 33.656 125.642 32.72C126.29 31.76 127.226 31.004 128.45 30.452C129.698 29.9 131.174 29.624 132.878 29.624C135.398 29.624 137.378 30.248 138.818 31.496C140.282 32.744 141.122 34.4 141.338 36.464H135.65C135.554 35.768 135.242 35.216 134.714 34.808C134.21 34.4 133.538 34.196 132.698 34.196C131.978 34.196 131.426 34.34 131.042 34.628C130.658 34.892 130.466 35.264 130.466 35.744C130.466 36.32 130.766 36.752 131.366 37.04C131.99 37.328 132.95 37.616 134.246 37.904C135.734 38.288 136.946 38.672 137.882 39.056C138.818 39.416 139.634 40.016 140.33 40.856C141.05 41.672 141.422 42.776 141.446 44.168C141.446 45.344 141.11 46.4 140.438 47.336C139.79 48.248 138.842 48.968 137.594 49.496C136.37 50.024 134.942 50.288 133.31 50.288Z" fill="#F25A23"/>
<path d="M47.34 50V51.3H48.64V50H47.34ZM41.184 50L40.0993 50.7165L40.4847 51.3H41.184V50ZM30.888 34.412L31.9727 33.6955L29.588 30.0851V34.412H30.888ZM30.888 50V51.3H32.188V50H30.888ZM24.732 50H23.432V51.3H24.732V50ZM24.732 24.728V23.428H23.432V24.728H24.732ZM30.888 24.728L31.9743 24.0138L31.5891 23.428H30.888V24.728ZM41.184 40.388L40.0977 41.1022L42.484 44.7316V40.388H41.184ZM41.184 24.728V23.428H39.884V24.728H41.184ZM47.34 24.728H48.64V23.428H47.34V24.728ZM47.34 50V48.7H41.184V50V51.3H47.34V50ZM41.184 50L42.2687 49.2835L31.9727 33.6955L30.888 34.412L29.8033 35.1285L40.0993 50.7165L41.184 50ZM30.888 34.412H29.588V50H30.888H32.188V34.412H30.888ZM30.888 50V48.7H24.732V50V51.3H30.888V50ZM24.732 50H26.032V24.728H24.732H23.432V50H24.732ZM24.732 24.728V26.028H30.888V24.728V23.428H24.732V24.728ZM30.888 24.728L29.8017 25.4422L40.0977 41.1022L41.184 40.388L42.2703 39.6738L31.9743 24.0138L30.888 24.728ZM41.184 40.388H42.484V24.728H41.184H39.884V40.388H41.184ZM41.184 24.728V26.028H47.34V24.728V23.428H41.184V24.728ZM47.34 24.728H46.04V50H47.34H48.64V24.728H47.34ZM70.6303 41.432V42.732H71.7889L71.9217 41.581L70.6303 41.432ZM56.6983 41.432V40.132H55.2945L55.4021 41.5317L56.6983 41.432ZM57.8863 44.312L56.9833 45.2472L56.9997 45.263L57.0167 45.2783L57.8863 44.312ZM63.7183 43.34V42.04H62.8876L62.5386 42.7938L63.7183 43.34ZM70.2703 43.34L71.5301 43.6607L71.9427 42.04H70.2703V43.34ZM68.4343 46.904L67.4393 46.0673L67.4337 46.074L67.4282 46.0808L68.4343 46.904ZM65.1583 49.388L65.6963 50.5715L65.1583 49.388ZM55.4743 49.028L54.8506 50.1686L55.4743 49.028ZM51.8743 45.428L53.0115 44.7981L51.8743 45.428ZM51.8383 34.484L50.7011 33.8541L50.6974 33.8609L50.6937 33.8677L51.8383 34.484ZM55.4383 30.884L56.0621 32.0246L55.4383 30.884ZM65.9143 30.848L65.2969 31.992L65.9143 30.848ZM69.4423 34.34L68.3059 34.9713L68.3097 34.9782L68.3136 34.985L69.4423 34.34ZM64.4383 38.012V39.312H65.7383V38.012H64.4383ZM63.3583 35.492L64.2097 34.5096L63.3583 35.492ZM58.0303 35.456L57.1981 34.4573L57.1897 34.4643L57.1815 34.4714L58.0303 35.456ZM56.7343 38.012L55.4491 37.8164L55.2215 39.312H56.7343V38.012ZM70.7383 39.632H69.4383C69.4383 40.154 69.4057 40.7041 69.3389 41.283L70.6303 41.432L71.9217 41.581C71.9989 40.9119 72.0383 40.262 72.0383 39.632H70.7383ZM70.6303 41.432V40.132H56.6983V41.432V42.732H70.6303V41.432ZM56.6983 41.432L55.4021 41.5317C55.5152 43.0013 55.9978 44.2956 56.9833 45.2472L57.8863 44.312L58.7893 43.3768C58.3829 42.9844 58.0734 42.3587 57.9945 41.3323L56.6983 41.432ZM57.8863 44.312L57.0167 45.2783C57.9919 46.156 59.1841 46.584 60.5143 46.584V45.284V43.984C59.7806 43.984 59.2208 43.764 58.756 43.3457L57.8863 44.312ZM60.5143 45.284V46.584C61.4656 46.584 62.3623 46.3823 63.1417 45.9094C63.927 45.4329 64.5055 44.734 64.898 43.8862L63.7183 43.34L62.5386 42.7938C62.3311 43.242 62.0756 43.5151 61.793 43.6866C61.5043 43.8617 61.099 43.984 60.5143 43.984V45.284ZM63.7183 43.34V44.64H70.2703V43.34V42.04H63.7183V43.34ZM70.2703 43.34L69.0105 43.0193C68.7234 44.147 68.203 45.1592 67.4393 46.0673L68.4343 46.904L69.4293 47.7407C70.4416 46.5368 71.1452 45.173 71.5301 43.6607L70.2703 43.34ZM68.4343 46.904L67.4282 46.0808C66.6984 46.9727 65.7704 47.6818 64.6204 48.2045L65.1583 49.388L65.6963 50.5715C67.1862 49.8942 68.4422 48.9473 69.4405 47.7272L68.4343 46.904ZM65.1583 49.388L64.6204 48.2045C63.4894 48.7186 62.2001 48.988 60.7303 48.988V50.288V51.588C62.5245 51.588 64.1873 51.2574 65.6963 50.5715L65.1583 49.388ZM60.7303 50.288V48.988C58.9528 48.988 57.42 48.6104 56.0981 47.8874L55.4743 49.028L54.8506 50.1686C56.6006 51.1256 58.5718 51.588 60.7303 51.588V50.288ZM55.4743 49.028L56.0981 47.8874C54.7824 47.1679 53.7586 46.1469 53.0115 44.7981L51.8743 45.428L50.7371 46.0578C51.7181 47.8291 53.0943 49.2081 54.8506 50.1686L55.4743 49.028ZM51.8743 45.428L53.0115 44.7981C52.2712 43.4615 51.8783 41.8615 51.8783 39.956H50.5783H49.2783C49.2783 42.2265 49.7494 44.2745 50.7371 46.0578L51.8743 45.428ZM50.5783 39.956H51.8783C51.8783 38.0447 52.2617 36.4397 52.9829 35.1003L51.8383 34.484L50.6937 33.8677C49.7349 35.6483 49.2783 37.6913 49.2783 39.956H50.5783ZM51.8383 34.484L52.9755 35.1138C53.7226 33.7651 54.7464 32.7441 56.0621 32.0246L55.4383 30.884L54.8146 29.7434C53.0583 30.7039 51.6821 32.0829 50.7011 33.8541L51.8383 34.484ZM55.4383 30.884L56.0621 32.0246C57.3818 31.3029 58.9259 30.924 60.7303 30.924V29.624V28.324C58.5507 28.324 56.5668 28.7851 54.8146 29.7434L55.4383 30.884ZM60.7303 29.624V30.924C62.4875 30.924 63.9983 31.2912 65.2969 31.992L65.9143 30.848L66.5317 29.704C64.8063 28.7728 62.8612 28.324 60.7303 28.324V29.624ZM65.9143 30.848L65.2969 31.992C66.589 32.6893 67.5856 33.6747 68.3059 34.9713L69.4423 34.34L70.5787 33.7087C69.6191 31.9813 68.2637 30.6387 66.5317 29.704L65.9143 30.848ZM69.4423 34.34L68.3136 34.985C69.0487 36.2714 69.4383 37.8062 69.4383 39.632H70.7383H72.0383C72.0383 37.4258 71.5639 35.4326 70.571 33.695L69.4423 34.34ZM64.4383 38.012H65.7383C65.7383 36.6248 65.2475 35.409 64.2097 34.5096L63.3583 35.492L62.5069 36.4744C62.9091 36.8229 63.1383 37.2872 63.1383 38.012H64.4383ZM63.3583 35.492L64.2097 34.5096C63.2218 33.6534 62.0065 33.256 60.6583 33.256V34.556V35.856C61.4701 35.856 62.0549 36.0826 62.5069 36.4744L63.3583 35.492ZM60.6583 34.556V33.256C59.3551 33.256 58.1758 33.6426 57.1981 34.4573L58.0303 35.456L58.8626 36.4547C59.3248 36.0694 59.8975 35.856 60.6583 35.856V34.556ZM58.0303 35.456L57.1815 34.4714C56.2027 35.3151 55.6533 36.4745 55.4491 37.8164L56.7343 38.012L58.0195 38.2076C58.1513 37.3415 58.4659 36.7969 58.8791 36.4406L58.0303 35.456ZM56.7343 38.012V39.312H64.4383V38.012V36.712H56.7343V38.012ZM80.1419 33.26H78.8419V37.6331L81.2308 33.9701L80.1419 33.26ZM82.8419 30.668L83.4923 31.7936L83.5016 31.7883L83.5108 31.7827L82.8419 30.668ZM86.4419 29.696H87.7419V28.396H86.4419V29.696ZM86.4419 36.212V37.512H87.7419V36.212H86.4419ZM81.2939 37.22L82.1322 38.2136L82.1412 38.206L82.15 38.1983L81.2939 37.22ZM80.1419 50V51.3H81.4419V50H80.1419ZM73.9859 50H72.6859V51.3H73.9859V50ZM73.9859 29.912V28.612H72.6859V29.912H73.9859ZM80.1419 29.912H81.4419V28.612H80.1419V29.912ZM80.1419 33.26L81.2308 33.9701C81.8458 33.0272 82.5991 32.3097 83.4923 31.7936L82.8419 30.668L82.1915 29.5424C80.9248 30.2743 79.878 31.2848 79.053 32.5499L80.1419 33.26ZM82.8419 30.668L83.5108 31.7827C84.3788 31.2619 85.3457 30.996 86.4419 30.996V29.696V28.396C84.8981 28.396 83.465 28.7781 82.1731 29.5533L82.8419 30.668ZM86.4419 29.696H85.1419V36.212H86.4419H87.7419V29.696H86.4419ZM86.4419 36.212V34.912H84.7499V36.212V37.512H86.4419V36.212ZM84.7499 36.212V34.912C83.053 34.912 81.5375 35.2794 80.4379 36.2416L81.2939 37.22L82.15 38.1983C82.5863 37.8165 83.3748 37.512 84.7499 37.512V36.212ZM81.2939 37.22L80.4556 36.2264C79.2499 37.2437 78.8419 38.8792 78.8419 40.676H80.1419H81.4419C81.4419 39.1608 81.8019 38.4923 82.1322 38.2136L81.2939 37.22ZM80.1419 40.676H78.8419V50H80.1419H81.4419V40.676H80.1419ZM80.1419 50V48.7H73.9859V50V51.3H80.1419V50ZM73.9859 50H75.2859V29.912H73.9859H72.6859V50H73.9859ZM73.9859 29.912V31.212H80.1419V29.912V28.612H73.9859V29.912ZM80.1419 29.912H78.8419V33.26H80.1419H81.4419V29.912H80.1419ZM89.3123 34.484L88.1532 33.8955L88.1496 33.9026L88.146 33.9098L89.3123 34.484ZM92.5163 30.884L93.2053 31.9864L92.5163 30.884ZM100.616 30.452L100.025 31.6096L100.035 31.6148L100.616 30.452ZM103.208 32.684L102.127 33.4051L104.508 36.9776V32.684H103.208ZM103.208 23.36V22.06H101.908V23.36H103.208ZM109.364 23.36H110.664V22.06H109.364V23.36ZM109.364 50V51.3H110.664V50H109.364ZM103.208 50H101.908V51.3H103.208V50ZM103.208 47.12H104.508V42.4266L102.094 46.4512L103.208 47.12ZM100.724 49.424L100.113 48.2769L100.102 48.2827L100.724 49.424ZM92.5163 49.028L91.8134 50.1215L91.8203 50.126L91.8273 50.1304L92.5163 49.028ZM89.3123 45.392L88.1426 45.9592L88.1478 45.9699L88.1532 45.9805L89.3123 45.392ZM101.912 36.32L100.968 37.2134L100.974 37.22L100.981 37.2266L101.912 36.32ZM95.6843 36.32L94.7526 35.4134L94.7523 35.4138L95.6843 36.32ZM95.6843 43.592L94.7281 44.4727L94.7402 44.4858L94.7526 44.4986L95.6843 43.592ZM101.912 43.592L100.981 42.6854L100.974 42.692L100.968 42.6986L101.912 43.592ZM88.1603 39.92H89.4603C89.4603 38.0182 89.8136 36.4091 90.4787 35.0582L89.3123 34.484L88.146 33.9098C87.2751 35.6789 86.8603 37.6938 86.8603 39.92H88.1603ZM89.3123 34.484L90.4715 35.0725C91.1679 33.7008 92.0823 32.6883 93.2053 31.9864L92.5163 30.884L91.8273 29.7816C90.2624 30.7597 89.0408 32.1472 88.1532 33.8955L89.3123 34.484ZM92.5163 30.884L93.2053 31.9864C94.3332 31.2815 95.5925 30.924 97.0163 30.924V29.624V28.324C95.1282 28.324 93.3875 28.8065 91.8273 29.7816L92.5163 30.884ZM97.0163 29.624V30.924C98.1492 30.924 99.1437 31.1593 100.025 31.6096L100.616 30.452L101.208 29.2944C99.929 28.6407 98.5235 28.324 97.0163 28.324V29.624ZM100.616 30.452L100.035 31.6148C100.957 32.0757 101.64 32.6753 102.127 33.4051L103.208 32.684L104.29 31.9629C103.529 30.8207 102.484 29.9323 101.198 29.2892L100.616 30.452ZM103.208 32.684H104.508V23.36H103.208H101.908V32.684H103.208ZM103.208 23.36V24.66H109.364V23.36V22.06H103.208V23.36ZM109.364 23.36H108.064V50H109.364H110.664V23.36H109.364ZM109.364 50V48.7H103.208V50V51.3H109.364V50ZM103.208 50H104.508V47.12H103.208H101.908V50H103.208ZM103.208 47.12L102.094 46.4512C101.65 47.1905 101.005 47.8011 100.113 48.2769L100.724 49.424L101.336 50.5711C102.604 49.8949 103.615 48.9695 104.323 47.7888L103.208 47.12ZM100.724 49.424L100.102 48.2827C99.268 48.7375 98.2534 48.988 97.0163 48.988V50.288V51.588C98.6112 51.588 100.069 51.2625 101.347 50.5653L100.724 49.424ZM97.0163 50.288V48.988C95.5925 48.988 94.3332 48.6305 93.2053 47.9256L92.5163 49.028L91.8273 50.1304C93.3875 51.1055 95.1282 51.588 97.0163 51.588V50.288ZM92.5163 49.028L93.2193 47.9345C92.0877 47.207 91.1692 46.1778 90.4715 44.8035L89.3123 45.392L88.1532 45.9805C89.0395 47.7262 90.257 49.121 91.8134 50.1215L92.5163 49.028ZM89.3123 45.392L90.4821 44.8248C89.8134 43.4456 89.4603 41.8212 89.4603 39.92H88.1603H86.8603C86.8603 42.1468 87.2753 44.1704 88.1426 45.9592L89.3123 45.392ZM103.208 39.956H104.508C104.508 38.167 103.998 36.5993 102.844 35.4134L101.912 36.32L100.981 37.2266C101.555 37.8167 101.908 38.673 101.908 39.956H103.208ZM101.912 36.32L102.857 35.4266C101.771 34.2787 100.397 33.688 98.8163 33.688V34.988V36.288C99.6836 36.288 100.374 36.5853 100.968 37.2134L101.912 36.32ZM98.8163 34.988V33.688C97.2366 33.688 95.858 34.2774 94.7526 35.4134L95.6843 36.32L96.6161 37.2266C97.2387 36.5866 97.9481 36.288 98.8163 36.288V34.988ZM95.6843 36.32L94.7523 35.4138C93.6163 36.5822 93.1243 38.1427 93.1243 39.92H94.4243H95.7243C95.7243 38.6253 96.0724 37.7858 96.6164 37.2262L95.6843 36.32ZM94.4243 39.92H93.1243C93.1243 41.7008 93.6174 43.2668 94.7281 44.4727L95.6843 43.592L96.6406 42.7113C96.0713 42.0932 95.7243 41.2112 95.7243 39.92H94.4243ZM95.6843 43.592L94.7526 44.4986C95.858 45.6346 97.2366 46.224 98.8163 46.224V44.924V43.624C97.9481 43.624 97.2387 43.3254 96.6161 42.6854L95.6843 43.592ZM98.8163 44.924V46.224C100.397 46.224 101.771 45.6333 102.857 44.4854L101.912 43.592L100.968 42.6986C100.374 43.3267 99.6836 43.624 98.8163 43.624V44.924ZM101.912 43.592L102.844 44.4986C103.998 43.3127 104.508 41.745 104.508 39.956H103.208H101.908C101.908 41.239 101.555 42.0953 100.981 42.6854L101.912 43.592ZM115.222 24.728V23.428H114.15L113.946 24.4804L115.222 24.728ZM121.522 24.728L122.721 25.2293L123.474 23.428H121.522V24.728ZM117.49 34.376V35.676H118.356L118.689 34.8773L117.49 34.376ZM113.35 34.376L112.074 34.1284L111.773 35.676H113.35V34.376ZM115.222 24.728V26.028H121.522V24.728V23.428H115.222V24.728ZM121.522 24.728L120.322 24.2267L116.29 33.8747L117.49 34.376L118.689 34.8773L122.721 25.2293L121.522 24.728ZM117.49 34.376V33.076H113.35V34.376V35.676H117.49V34.376ZM113.35 34.376L114.626 34.6236L116.498 24.9756L115.222 24.728L113.946 24.4804L112.074 34.1284L113.35 34.376ZM128.63 49.388L129.152 48.1975L128.63 49.388ZM125.39 46.94L124.35 47.72L124.355 47.7258L124.359 47.7315L125.39 46.94ZM124.058 43.412V42.112H122.658L122.762 43.508L124.058 43.412ZM130.142 43.412L131.435 43.2782L131.315 42.112H130.142V43.412ZM131.114 45.104L131.894 44.064L131.114 45.104ZM135.002 45.32L135.752 46.3821L135.763 46.3739L135.002 45.32ZM134.75 42.872L134.188 44.044L134.207 44.0533L134.227 44.0619L134.75 42.872ZM131.834 41.936L132.15 40.6748L132.14 40.6723L132.13 40.67L131.834 41.936ZM128.234 40.892L127.751 42.099L127.765 42.1043L127.778 42.1092L128.234 40.892ZM125.75 39.128L124.761 39.9716L124.767 39.9789L124.774 39.9861L125.75 39.128ZM125.642 32.72L124.565 31.9927L124.561 31.9989L125.642 32.72ZM128.45 30.452L127.924 29.2631L127.916 29.2669L128.45 30.452ZM138.818 31.496L137.967 32.4784L137.975 32.4853L138.818 31.496ZM141.338 36.464V37.764H142.781L142.631 36.3287L141.338 36.464ZM135.65 36.464L134.362 36.6416L134.517 37.764H135.65V36.464ZM134.714 34.808L133.896 35.8184L133.908 35.8277L133.919 35.8367L134.714 34.808ZM131.042 34.628L131.779 35.6993L131.801 35.6841L131.822 35.668L131.042 34.628ZM131.366 37.04L130.804 38.212L130.813 38.2162L130.821 38.2203L131.366 37.04ZM134.246 37.904L134.571 36.6452L134.55 36.6397L134.528 36.635L134.246 37.904ZM137.882 39.056L137.389 40.2587L137.402 40.2642L137.416 40.2693L137.882 39.056ZM140.33 40.856L139.329 41.6854L139.342 41.701L139.355 41.7161L140.33 40.856ZM141.446 44.168H142.746V44.1568L142.746 44.1456L141.446 44.168ZM140.438 47.336L139.382 46.5778L139.379 46.583L140.438 47.336ZM137.594 49.496L137.088 48.2987L137.079 48.3023L137.594 49.496ZM133.31 50.288V48.988C131.707 48.988 130.33 48.7139 129.152 48.1975L128.63 49.388L128.108 50.5785C129.667 51.2621 131.409 51.588 133.31 51.588V50.288ZM128.63 49.388L129.152 48.1975C127.955 47.6723 127.062 46.9824 126.422 46.1485L125.39 46.94L124.359 47.7315C125.303 48.9616 126.57 49.9037 128.108 50.5785L128.63 49.388ZM125.39 46.94L126.43 46.16C125.785 45.2995 125.432 44.3601 125.355 43.316L124.058 43.412L122.762 43.508C122.876 45.0559 123.412 46.4685 124.35 47.72L125.39 46.94ZM124.058 43.412V44.712H130.142V43.412V42.112H124.058V43.412ZM130.142 43.412L128.849 43.5458C128.96 44.6138 129.478 45.5018 130.334 46.144L131.114 45.104L131.894 44.064C131.599 43.8422 131.469 43.6022 131.435 43.2782L130.142 43.412ZM131.114 45.104L130.334 46.144C131.171 46.7718 132.166 47.052 133.238 47.052V45.752V44.452C132.631 44.452 132.209 44.3002 131.894 44.064L131.114 45.104ZM133.238 45.752V47.052C134.14 47.052 135.035 46.8878 135.752 46.3821L135.002 45.32L134.253 44.2579C134.153 44.3282 133.873 44.452 133.238 44.452V45.752ZM135.002 45.32L135.763 46.3739C136.491 45.8487 136.95 45.08 136.95 44.132H135.65H134.35C134.35 44.1538 134.348 44.1637 134.348 44.165C134.347 44.166 134.347 44.1656 134.347 44.1665C134.346 44.1677 134.341 44.1765 134.327 44.1925C134.312 44.209 134.285 44.2343 134.241 44.2661L135.002 45.32ZM135.65 44.132H136.95C136.95 43.6059 136.809 43.0852 136.483 42.6294C136.165 42.1843 135.731 41.8832 135.274 41.6821L134.75 42.872L134.227 44.0619C134.37 44.1248 134.385 44.1657 134.367 44.1406C134.359 44.1289 134.352 44.1149 134.349 44.1042C134.346 44.0948 134.35 44.1015 134.35 44.132H135.65ZM134.75 42.872L135.313 41.7C134.587 41.3518 133.508 41.0144 132.15 40.6748L131.834 41.936L131.519 43.1972C132.849 43.5296 133.713 43.8162 134.188 44.044L134.75 42.872ZM131.834 41.936L132.13 40.67C130.723 40.3417 129.581 40.0085 128.691 39.6748L128.234 40.892L127.778 42.1092C128.808 42.4955 130.066 42.8583 131.539 43.202L131.834 41.936ZM128.234 40.892L128.717 39.685C127.951 39.3784 127.291 38.9115 126.727 38.2698L125.75 39.128L124.774 39.9861C125.602 40.9285 126.598 41.6376 127.751 42.099L128.234 40.892ZM125.75 39.128L126.739 38.2844C126.294 37.7625 126.006 36.9981 126.006 35.852H124.706H123.406C123.406 37.4419 123.814 38.8615 124.761 39.9716L125.75 39.128ZM124.706 35.852H126.006C126.006 34.9501 126.246 34.1582 126.724 33.4411L125.642 32.72L124.561 31.9989C123.791 33.1538 123.406 34.4499 123.406 35.852H124.706ZM125.642 32.72L126.72 33.4473C127.212 32.7175 127.945 32.1059 128.985 31.6371L128.45 30.452L127.916 29.2669C126.507 29.9021 125.368 30.8025 124.565 31.9927L125.642 32.72ZM128.45 30.452L128.976 31.6409C130.023 31.178 131.312 30.924 132.878 30.924V29.624V28.324C131.037 28.324 129.374 28.622 127.924 29.2631L128.45 30.452ZM132.878 29.624V30.924C135.188 30.924 136.83 31.4936 137.967 32.4784L138.818 31.496L139.67 30.5136C137.926 29.0024 135.609 28.324 132.878 28.324V29.624ZM138.818 31.496L137.975 32.4853C139.164 33.4989 139.861 34.8385 140.045 36.5993L141.338 36.464L142.631 36.3287C142.383 33.9615 141.401 31.9891 139.662 30.5067L138.818 31.496ZM141.338 36.464V35.164H135.65V36.464V37.764H141.338V36.464ZM135.65 36.464L136.938 36.2864C136.798 35.2729 136.322 34.4074 135.509 33.7793L134.714 34.808L133.919 35.8367C134.163 36.0246 134.31 36.2631 134.362 36.6416L135.65 36.464ZM134.714 34.808L135.532 33.7976C134.736 33.153 133.747 32.896 132.698 32.896V34.196V35.496C133.33 35.496 133.685 35.647 133.896 35.8184L134.714 34.808ZM132.698 34.196V32.896C131.831 32.896 130.959 33.0656 130.262 33.588L131.042 34.628L131.822 35.668C131.894 35.6144 132.126 35.496 132.698 35.496V34.196ZM131.042 34.628L130.306 33.5567C129.557 34.0718 129.166 34.8513 129.166 35.744H130.466H131.766C131.766 35.7108 131.77 35.694 131.77 35.69C131.771 35.6867 131.77 35.6918 131.765 35.7012C131.761 35.7108 131.756 35.717 131.754 35.7189C131.753 35.7203 131.759 35.713 131.779 35.6993L131.042 34.628ZM130.466 35.744H129.166C129.166 36.2706 129.308 36.7871 129.623 37.2415C129.932 37.6852 130.354 37.996 130.804 38.212L131.366 37.04L131.929 35.868C131.779 35.796 131.751 35.7468 131.759 35.7585C131.763 35.7638 131.767 35.7719 131.768 35.7782C131.77 35.7834 131.766 35.7743 131.766 35.744H130.466ZM131.366 37.04L130.821 38.2203C131.575 38.5681 132.645 38.8799 133.964 39.173L134.246 37.904L134.528 36.635C133.256 36.3521 132.405 36.0879 131.911 35.8597L131.366 37.04ZM134.246 37.904L133.921 39.1628C135.378 39.5387 136.528 39.9056 137.389 40.2587L137.882 39.056L138.376 37.8533C137.364 37.4384 136.09 37.0373 134.571 36.6452L134.246 37.904ZM137.882 39.056L137.416 40.2693C138.125 40.5424 138.763 41.0016 139.329 41.6854L140.33 40.856L141.331 40.0266C140.506 39.0304 139.511 38.2896 138.349 37.8426L137.882 39.056ZM140.33 40.856L139.355 41.7161C139.819 42.2418 140.126 43.019 140.146 44.1904L141.446 44.168L142.746 44.1456C142.718 42.533 142.281 41.1022 141.305 39.9959L140.33 40.856ZM141.446 44.168H140.146C140.146 45.078 139.892 45.8676 139.382 46.5778L140.438 47.336L141.494 48.0942C142.328 46.9324 142.746 45.61 142.746 44.168H141.446ZM140.438 47.336L139.379 46.583C138.897 47.2606 138.161 47.8448 137.088 48.2987L137.594 49.496L138.101 50.6933C139.524 50.0912 140.683 49.2354 141.498 48.089L140.438 47.336ZM137.594 49.496L137.079 48.3023C136.05 48.7463 134.804 48.988 133.31 48.988V50.288V51.588C135.081 51.588 136.69 51.3017 138.109 50.6897L137.594 49.496Z" fill="white" mask="url(#path-1-inside-1_9_48)"/>
<path d="M28.2659 56.51C28.2659 55.83 28.4193 55.22 28.7259 54.68C29.0326 54.1333 29.4493 53.7067 29.9759 53.4C30.5093 53.0933 31.0993 52.94 31.7459 52.94C32.5059 52.94 33.1693 53.1233 33.7359 53.49C34.3026 53.8567 34.7159 54.3767 34.9759 55.05H33.8859C33.6926 54.63 33.4126 54.3067 33.0459 54.08C32.6859 53.8533 32.2526 53.74 31.7459 53.74C31.2593 53.74 30.8226 53.8533 30.4359 54.08C30.0493 54.3067 29.7459 54.63 29.5259 55.05C29.3059 55.4633 29.1959 55.95 29.1959 56.51C29.1959 57.0633 29.3059 57.55 29.5259 57.97C29.7459 58.3833 30.0493 58.7033 30.4359 58.93C30.8226 59.1567 31.2593 59.27 31.7459 59.27C32.2526 59.27 32.6859 59.16 33.0459 58.94C33.4126 58.7133 33.6926 58.39 33.8859 57.97H34.9759C34.7159 58.6367 34.3026 59.1533 33.7359 59.52C33.1693 59.88 32.5059 60.06 31.7459 60.06C31.0993 60.06 30.5093 59.91 29.9759 59.61C29.4493 59.3033 29.0326 58.88 28.7259 58.34C28.4193 57.8 28.2659 57.19 28.2659 56.51ZM43.4905 60.07C42.8439 60.07 42.2539 59.92 41.7205 59.62C41.1872 59.3133 40.7639 58.89 40.4505 58.35C40.1439 57.8033 39.9905 57.19 39.9905 56.51C39.9905 55.83 40.1439 55.22 40.4505 54.68C40.7639 54.1333 41.1872 53.71 41.7205 53.41C42.2539 53.1033 42.8439 52.95 43.4905 52.95C44.1439 52.95 44.7372 53.1033 45.2705 53.41C45.8039 53.71 46.2239 54.13 46.5305 54.67C46.8372 55.21 46.9905 55.8233 46.9905 56.51C46.9905 57.1967 46.8372 57.81 46.5305 58.35C46.2239 58.89 45.8039 59.3133 45.2705 59.62C44.7372 59.92 44.1439 60.07 43.4905 60.07ZM43.4905 59.28C43.9772 59.28 44.4139 59.1667 44.8005 58.94C45.1939 58.7133 45.5005 58.39 45.7205 57.97C45.9472 57.55 46.0605 57.0633 46.0605 56.51C46.0605 55.95 45.9472 55.4633 45.7205 55.05C45.5005 54.63 45.1972 54.3067 44.8105 54.08C44.4239 53.8533 43.9839 53.74 43.4905 53.74C42.9972 53.74 42.5572 53.8533 42.1705 54.08C41.7839 54.3067 41.4772 54.63 41.2505 55.05C41.0305 55.4633 40.9205 55.95 40.9205 56.51C40.9205 57.0633 41.0305 57.55 41.2505 57.97C41.4772 58.39 41.7839 58.7133 42.1705 58.94C42.5639 59.1667 43.0039 59.28 43.4905 59.28ZM56.1319 53.03V53.77H53.1019V56.12H55.5619V56.86H53.1019V60H52.1919V53.03H56.1319ZM65.1709 53.03V53.77H62.1409V56.12H64.6009V56.86H62.1409V60H61.2309V53.03H65.1709ZM71.18 53.77V56.1H73.72V56.85H71.18V59.25H74.02V60H70.27V53.02H74.02V53.77H71.18ZM80.307 53.77V56.1H82.847V56.85H80.307V59.25H83.147V60H79.397V53.02H83.147V53.77H80.307ZM100.54 60L99.6299 59.08C99.2899 59.4333 98.9266 59.6967 98.5399 59.87C98.1533 60.0367 97.7166 60.12 97.2299 60.12C96.7499 60.12 96.3233 60.0333 95.9499 59.86C95.5833 59.6867 95.2966 59.44 95.0899 59.12C94.8899 58.8 94.7899 58.4267 94.7899 58C94.7899 57.5133 94.9266 57.0867 95.1999 56.72C95.4799 56.3467 95.8899 56.0533 96.4299 55.84C96.2166 55.5867 96.0633 55.3533 95.9699 55.14C95.8766 54.9267 95.8299 54.6933 95.8299 54.44C95.8299 54.1467 95.9033 53.8833 96.0499 53.65C96.2033 53.41 96.4199 53.2233 96.6999 53.09C96.9799 52.9567 97.3033 52.89 97.6699 52.89C98.0299 52.89 98.3433 52.96 98.6099 53.1C98.8766 53.24 99.0766 53.4367 99.2099 53.69C99.3433 53.9367 99.4033 54.2133 99.3899 54.52H98.4799C98.4866 54.2467 98.4099 54.0333 98.2499 53.88C98.0899 53.72 97.8833 53.64 97.6299 53.64C97.3633 53.64 97.1466 53.7167 96.9799 53.87C96.8199 54.0167 96.7399 54.2067 96.7399 54.44C96.7399 54.64 96.7933 54.8333 96.8999 55.02C97.0133 55.2067 97.1999 55.4367 97.4599 55.71L99.5399 57.8L99.7199 57.52L100.4 56.38H101.38L100.56 57.8C100.447 58 100.313 58.21 100.16 58.43L101.73 60H100.54ZM97.2299 59.34C97.5899 59.34 97.9133 59.27 98.1999 59.13C98.4933 58.99 98.7699 58.7733 99.0299 58.48L96.9799 56.42C96.1266 56.7467 95.6999 57.2633 95.6999 57.97C95.6999 58.3633 95.8399 58.69 96.1199 58.95C96.4066 59.21 96.7766 59.34 97.2299 59.34ZM112.909 56.51C112.909 55.83 113.062 55.22 113.369 54.68C113.675 54.1333 114.092 53.7067 114.619 53.4C115.152 53.0933 115.742 52.94 116.389 52.94C117.149 52.94 117.812 53.1233 118.379 53.49C118.945 53.8567 119.359 54.3767 119.619 55.05H118.529C118.335 54.63 118.055 54.3067 117.689 54.08C117.329 53.8533 116.895 53.74 116.389 53.74C115.902 53.74 115.465 53.8533 115.079 54.08C114.692 54.3067 114.389 54.63 114.169 55.05C113.949 55.4633 113.839 55.95 113.839 56.51C113.839 57.0633 113.949 57.55 114.169 57.97C114.389 58.3833 114.692 58.7033 115.079 58.93C115.465 59.1567 115.902 59.27 116.389 59.27C116.895 59.27 117.329 59.16 117.689 58.94C118.055 58.7133 118.335 58.39 118.529 57.97H119.619C119.359 58.6367 118.945 59.1533 118.379 59.52C117.812 59.88 117.149 60.06 116.389 60.06C115.742 60.06 115.152 59.91 114.619 59.61C114.092 59.3033 113.675 58.88 113.369 58.34C113.062 57.8 112.909 57.19 112.909 56.51ZM128.133 60.07C127.486 60.07 126.896 59.92 126.363 59.62C125.83 59.3133 125.406 58.89 125.093 58.35C124.786 57.8033 124.633 57.19 124.633 56.51C124.633 55.83 124.786 55.22 125.093 54.68C125.406 54.1333 125.83 53.71 126.363 53.41C126.896 53.1033 127.486 52.95 128.133 52.95C128.786 52.95 129.38 53.1033 129.913 53.41C130.446 53.71 130.866 54.13 131.173 54.67C131.48 55.21 131.633 55.8233 131.633 56.51C131.633 57.1967 131.48 57.81 131.173 58.35C130.866 58.89 130.446 59.3133 129.913 59.62C129.38 59.92 128.786 60.07 128.133 60.07ZM128.133 59.28C128.62 59.28 129.056 59.1667 129.443 58.94C129.836 58.7133 130.143 58.39 130.363 57.97C130.59 57.55 130.703 57.0633 130.703 56.51C130.703 55.95 130.59 55.4633 130.363 55.05C130.143 54.63 129.84 54.3067 129.453 54.08C129.066 53.8533 128.626 53.74 128.133 53.74C127.64 53.74 127.2 53.8533 126.813 54.08C126.426 54.3067 126.12 54.63 125.893 55.05C125.673 55.4633 125.563 55.95 125.563 56.51C125.563 57.0633 125.673 57.55 125.893 57.97C126.12 58.39 126.426 58.7133 126.813 58.94C127.206 59.1667 127.646 59.28 128.133 59.28ZM137.124 60.06C136.951 60.06 136.804 60 136.684 59.88C136.564 59.76 136.504 59.6133 136.504 59.44C136.504 59.2667 136.564 59.12 136.684 59C136.804 58.88 136.951 58.82 137.124 58.82C137.291 58.82 137.431 58.88 137.544 59C137.664 59.12 137.724 59.2667 137.724 59.44C137.724 59.6133 137.664 59.76 137.544 59.88C137.431 60 137.291 60.06 137.124 60.06Z" fill="#4A4A4A"/>
</svg>
